<svg width="33" height="23" viewBox="0 0 33 23" fill="none" xmlns="http://www.w3.org/2000/svg">
<path d="M30.1489 4.25167L30.1487 4.2506C30.0381 3.83408 29.82 3.45392 29.5162 3.14821C29.2129 2.84293 28.8347 2.62259 28.4196 2.50918C27.9614 2.38592 27.0211 2.26808 25.7417 2.17411C24.503 2.08314 23.065 2.02178 21.6896 1.98064C20.3166 1.93958 19.0181 1.919 18.062 1.90871C17.5843 1.90357 17.1928 1.901 16.9212 1.89972C16.7853 1.89907 16.6795 1.89875 16.6079 1.8986L16.5267 1.89846L16.5064 1.89844L16.5014 1.89844L16.5003 1.89844H16.5L16.5 0.398438L16.5 1.89844H16.4998L16.4986 1.89844L16.4936 1.89844L16.4733 1.89846L16.3921 1.8986C16.3205 1.89875 16.2147 1.89907 16.0788 1.89972C15.8072 1.901 15.4157 1.90357 14.938 1.90871C13.9819 1.919 12.6834 1.93958 11.3104 1.98064C9.93497 2.02178 8.49697 2.08314 7.25833 2.17411C5.97888 2.26808 5.03857 2.38592 4.58036 2.50919C4.16525 2.6226 3.78714 2.84294 3.48381 3.14821C3.18005 3.45392 2.96195 3.83407 2.85135 4.2506L2.85107 4.25167C2.56689 5.31872 2.40587 7.08277 2.32327 8.68735C2.28312 9.46729 2.26299 10.1733 2.25292 10.6844C2.24789 10.9396 2.24539 11.1454 2.24415 11.2865C2.24353 11.3571 2.24322 11.4114 2.24307 11.4476L2.24294 11.4881L2.24292 11.4977L2.24292 11.4997L2.24292 11.4998V11.4998V11.5V11.5L2.24292 11.5001L2.24292 11.5021L2.24294 11.5117L2.24307 11.5522C2.24322 11.5884 2.24353 11.6427 2.24415 11.7133C2.24539 11.8544 2.24789 12.0602 2.25292 12.3154C2.26299 12.8265 2.28312 13.5325 2.32327 14.3125C2.40587 15.9171 2.56689 17.6814 2.85109 18.7487L2.85135 18.7497C2.96195 19.1663 3.18005 19.5464 3.48381 19.8521C3.7871 20.1574 4.16515 20.3777 4.58019 20.4911C5.03855 20.6143 5.97892 20.732 7.25824 20.8259C8.49691 20.9168 9.93493 20.9781 11.3103 21.0192C12.6833 21.0602 13.9819 21.0808 14.938 21.0911C15.4157 21.0962 15.8072 21.0988 16.0788 21.1001C16.2147 21.1007 16.3205 21.101 16.3921 21.1012L16.4733 21.1013L16.4936 21.1014L16.4986 21.1014L16.4998 21.1014H16.5H16.5003L16.5014 21.1014L16.5064 21.1014L16.5267 21.1013L16.6079 21.1012C16.6795 21.101 16.7854 21.1007 16.9212 21.1001C17.1928 21.0988 17.5843 21.0962 18.062 21.0911C19.0181 21.0808 20.3167 21.0602 21.6897 21.0192C23.0651 20.9781 24.5031 20.9168 25.7418 20.8259C27.0211 20.732 27.9614 20.6143 28.4198 20.4911C28.8348 20.3777 29.2129 20.1574 29.5162 19.8521C29.82 19.5464 30.0381 19.1663 30.1487 18.7497L30.1489 18.7487C30.4331 17.6814 30.5941 15.9171 30.6767 14.3125C30.7169 13.5325 30.737 12.8265 30.7471 12.3154C30.7521 12.0602 30.7546 11.8544 30.7559 11.7133C30.7565 11.6427 30.7568 11.5884 30.7569 11.5522L30.7571 11.5117L30.7571 11.5021L30.7571 11.5001L30.1489 4.25167ZM30.1489 4.25167C30.4331 5.31872 30.5941 7.08277 30.6767 8.68735C30.7169 9.46729 30.737 10.1733 30.7471 10.6844C30.7521 10.9396 30.7546 11.1454 30.7559 11.2865C30.7565 11.3571 30.7568 11.4114 30.7569 11.4476L30.7571 11.4881L30.7571 11.4977L30.7571 11.4997V11.4998V11.4999V11.5L30.1489 4.25167Z" stroke="white" stroke-width="3"/>
<path d="M13.2771 16.1853L21.5137 11.4999L13.2771 6.81445V16.1853Z" fill="white"/>
</svg>
