<svg width="32" height="31" viewBox="0 0 32 31" fill="none" xmlns="http://www.w3.org/2000/svg">
<path d="M15.9965 28.6373L19.4986 25.8357M15.9965 28.6373V16.0298V28.6373ZM15.9965 28.6373L12.4944 25.8357L15.9965 28.6373Z" stroke="white" stroke-width="3" stroke-linecap="round" stroke-linejoin="round"/>
<path d="M6.23812 10.5903C4.91322 10.9237 3.75566 11.7294 2.98293 12.8561C2.21019 13.9828 1.87546 15.3528 2.04164 16.7089C2.20781 18.065 2.86345 19.3137 3.88537 20.2204C4.90728 21.1272 6.22514 21.6295 7.59133 21.6332H8.99217" stroke="white" stroke-width="3" stroke-linecap="round" stroke-linejoin="round"/>
<path d="M21.3615 7.81817C20.8827 5.92223 19.7009 4.27928 18.0557 3.22237C16.4105 2.16546 14.4249 1.77367 12.5016 2.12642C10.5782 2.47917 8.86088 3.55007 7.6978 5.12203C6.53472 6.69398 6.01287 8.64938 6.23804 10.5918C6.23804 10.5918 6.45237 11.8274 6.89083 12.5278" stroke="white" stroke-width="3" stroke-linecap="round" stroke-linejoin="round"/>
<path d="M23.0006 21.6329C23.9897 21.6322 24.9674 21.4221 25.8694 21.0163C26.7713 20.6106 27.5772 20.0184 28.2338 19.2788C28.8904 18.5391 29.3829 17.6688 29.679 16.7251C29.975 15.7814 30.0678 14.7857 29.9513 13.8035C29.8348 12.8214 29.5116 11.875 29.0029 11.0268C28.4943 10.1785 27.8118 9.44763 27.0004 8.88216C26.1889 8.3167 25.2669 7.9295 24.295 7.74605C23.3231 7.5626 22.3234 7.58706 21.3617 7.81783L19.4985 8.32493" stroke="white" stroke-width="3" stroke-linecap="round" stroke-linejoin="round"/>
</svg>
